<mxfile host="app.diagrams.net" modified="2022-07-09T13:38:58.609Z" agent="5.0 (Windows NT 10.0; Win64; x64) AppleWebKit/537.36 (KHTML, like Gecko) Chrome/103.0.5060.114 Safari/537.36" etag="jsH7Ukq_gI4PKmrkg2qY" version="20.0.4" type="github">
  <diagram id="E3Hz384aTMIOWzto5tJ7" name="Page-1">
    <mxGraphModel dx="1038" dy="551" grid="1" gridSize="10" guides="1" tooltips="1" connect="1" arrows="1" fold="1" page="1" pageScale="1" pageWidth="827" pageHeight="1169" background="#114B5F" math="0" shadow="0">
      <root>
        <mxCell id="0" />
        <mxCell id="1" parent="0" />
        <mxCell id="1nVwXJISQhhi6vgNf-hK-1" value="Funcionario" style="swimlane;fontStyle=3;align=center;verticalAlign=top;childLayout=stackLayout;horizontal=1;startSize=26;horizontalStack=0;resizeParent=1;resizeParentMax=0;resizeLast=0;collapsible=1;marginBottom=0;rounded=0;sketch=0;fillColor=#F45B69;strokeColor=#028090;fontColor=#E4FDE1;" vertex="1" parent="1">
          <mxGeometry x="380" y="140" width="160" height="86" as="geometry" />
        </mxCell>
        <mxCell id="1nVwXJISQhhi6vgNf-hK-2" value="# nome: String" style="text;strokeColor=none;fillColor=none;align=left;verticalAlign=top;spacingLeft=4;spacingRight=4;overflow=hidden;rotatable=0;points=[[0,0.5],[1,0.5]];portConstraint=eastwest;rounded=0;sketch=0;fontColor=#E4FDE1;" vertex="1" parent="1nVwXJISQhhi6vgNf-hK-1">
          <mxGeometry y="26" width="160" height="26" as="geometry" />
        </mxCell>
        <mxCell id="1nVwXJISQhhi6vgNf-hK-3" value="" style="line;strokeWidth=1;fillColor=none;align=left;verticalAlign=middle;spacingTop=-1;spacingLeft=3;spacingRight=3;rotatable=0;labelPosition=right;points=[];portConstraint=eastwest;rounded=0;sketch=0;labelBackgroundColor=#114B5F;strokeColor=#028090;fontColor=#E4FDE1;" vertex="1" parent="1nVwXJISQhhi6vgNf-hK-1">
          <mxGeometry y="52" width="160" height="8" as="geometry" />
        </mxCell>
        <mxCell id="1nVwXJISQhhi6vgNf-hK-4" value="+ receberSalario(void): void" style="text;strokeColor=none;fillColor=none;align=left;verticalAlign=top;spacingLeft=4;spacingRight=4;overflow=hidden;rotatable=0;points=[[0,0.5],[1,0.5]];portConstraint=eastwest;rounded=0;sketch=0;fontStyle=2;fontColor=#E4FDE1;" vertex="1" parent="1nVwXJISQhhi6vgNf-hK-1">
          <mxGeometry y="60" width="160" height="26" as="geometry" />
        </mxCell>
        <mxCell id="1nVwXJISQhhi6vgNf-hK-5" style="rounded=1;sketch=0;orthogonalLoop=1;jettySize=auto;html=1;exitX=0.5;exitY=0;exitDx=0;exitDy=0;endSize=16;endArrow=block;endFill=0;labelBackgroundColor=#114B5F;strokeColor=#028090;fontColor=#E4FDE1;" edge="1" parent="1" source="1nVwXJISQhhi6vgNf-hK-6" target="1nVwXJISQhhi6vgNf-hK-1">
          <mxGeometry relative="1" as="geometry" />
        </mxCell>
        <mxCell id="1nVwXJISQhhi6vgNf-hK-6" value="Gerente" style="swimlane;fontStyle=1;align=center;verticalAlign=top;childLayout=stackLayout;horizontal=1;startSize=26;horizontalStack=0;resizeParent=1;resizeParentMax=0;resizeLast=0;collapsible=1;marginBottom=0;rounded=0;sketch=0;fillColor=#F45B69;strokeColor=#028090;fontColor=#E4FDE1;" vertex="1" parent="1">
          <mxGeometry x="280" y="300" width="160" height="86" as="geometry" />
        </mxCell>
        <mxCell id="1nVwXJISQhhi6vgNf-hK-7" value="- anosExperiencia: int" style="text;strokeColor=none;fillColor=none;align=left;verticalAlign=top;spacingLeft=4;spacingRight=4;overflow=hidden;rotatable=0;points=[[0,0.5],[1,0.5]];portConstraint=eastwest;rounded=0;sketch=0;fontColor=#E4FDE1;" vertex="1" parent="1nVwXJISQhhi6vgNf-hK-6">
          <mxGeometry y="26" width="160" height="26" as="geometry" />
        </mxCell>
        <mxCell id="1nVwXJISQhhi6vgNf-hK-8" value="" style="line;strokeWidth=1;fillColor=none;align=left;verticalAlign=middle;spacingTop=-1;spacingLeft=3;spacingRight=3;rotatable=0;labelPosition=right;points=[];portConstraint=eastwest;rounded=0;sketch=0;labelBackgroundColor=#114B5F;strokeColor=#028090;fontColor=#E4FDE1;" vertex="1" parent="1nVwXJISQhhi6vgNf-hK-6">
          <mxGeometry y="52" width="160" height="8" as="geometry" />
        </mxCell>
        <mxCell id="1nVwXJISQhhi6vgNf-hK-9" value="+ receberSalario(void): void" style="text;strokeColor=none;fillColor=none;align=left;verticalAlign=top;spacingLeft=4;spacingRight=4;overflow=hidden;rotatable=0;points=[[0,0.5],[1,0.5]];portConstraint=eastwest;rounded=0;sketch=0;fontStyle=0;fontColor=#E4FDE1;" vertex="1" parent="1nVwXJISQhhi6vgNf-hK-6">
          <mxGeometry y="60" width="160" height="26" as="geometry" />
        </mxCell>
        <mxCell id="1nVwXJISQhhi6vgNf-hK-10" style="rounded=1;sketch=0;orthogonalLoop=1;jettySize=auto;html=1;exitX=0.5;exitY=0;exitDx=0;exitDy=0;endSize=16;endArrow=block;endFill=0;labelBackgroundColor=#114B5F;strokeColor=#028090;fontColor=#E4FDE1;" edge="1" parent="1" source="1nVwXJISQhhi6vgNf-hK-11" target="1nVwXJISQhhi6vgNf-hK-1">
          <mxGeometry relative="1" as="geometry" />
        </mxCell>
        <mxCell id="1nVwXJISQhhi6vgNf-hK-11" value="Vendedor" style="swimlane;fontStyle=1;align=center;verticalAlign=top;childLayout=stackLayout;horizontal=1;startSize=26;horizontalStack=0;resizeParent=1;resizeParentMax=0;resizeLast=0;collapsible=1;marginBottom=0;rounded=0;sketch=0;fillColor=#F45B69;strokeColor=#028090;fontColor=#E4FDE1;" vertex="1" parent="1">
          <mxGeometry x="480" y="300" width="160" height="86" as="geometry" />
        </mxCell>
        <mxCell id="1nVwXJISQhhi6vgNf-hK-12" value="- qtdVendas: int" style="text;strokeColor=none;fillColor=none;align=left;verticalAlign=top;spacingLeft=4;spacingRight=4;overflow=hidden;rotatable=0;points=[[0,0.5],[1,0.5]];portConstraint=eastwest;rounded=0;sketch=0;fontColor=#E4FDE1;" vertex="1" parent="1nVwXJISQhhi6vgNf-hK-11">
          <mxGeometry y="26" width="160" height="26" as="geometry" />
        </mxCell>
        <mxCell id="1nVwXJISQhhi6vgNf-hK-13" value="" style="line;strokeWidth=1;fillColor=none;align=left;verticalAlign=middle;spacingTop=-1;spacingLeft=3;spacingRight=3;rotatable=0;labelPosition=right;points=[];portConstraint=eastwest;rounded=0;sketch=0;labelBackgroundColor=#114B5F;strokeColor=#028090;fontColor=#E4FDE1;" vertex="1" parent="1nVwXJISQhhi6vgNf-hK-11">
          <mxGeometry y="52" width="160" height="8" as="geometry" />
        </mxCell>
        <mxCell id="1nVwXJISQhhi6vgNf-hK-14" value="+ receberSalario(void): void" style="text;strokeColor=none;fillColor=none;align=left;verticalAlign=top;spacingLeft=4;spacingRight=4;overflow=hidden;rotatable=0;points=[[0,0.5],[1,0.5]];portConstraint=eastwest;rounded=0;sketch=0;fontStyle=0;fontColor=#E4FDE1;" vertex="1" parent="1nVwXJISQhhi6vgNf-hK-11">
          <mxGeometry y="60" width="160" height="26" as="geometry" />
        </mxCell>
      </root>
    </mxGraphModel>
  </diagram>
</mxfile>
